<svg width="512" height="512" viewBox="0 0 512 512" fill="none" xmlns="http://www.w3.org/2000/svg">
  <defs>
    <linearGradient id="bg" x1="0" y1="0" x2="1" y2="1">
      <stop offset="0%" stop-color="#0f172a"/>
      <stop offset="100%" stop-color="#1e293b"/>
    </linearGradient>
    <linearGradient id="car" x1="0" y1="0" x2="0" y2="1">
      <stop offset="0%" stop-color="#f8fafc"/>
      <stop offset="100%" stop-color="#e2e8f0"/>
    </linearGradient>
    <linearGradient id="accent" x1="0" y1="0" x2="1" y2="1">
      <stop offset="0%" stop-color="#22c55e"/>
      <stop offset="100%" stop-color="#10b981"/>
    </linearGradient>
  </defs>
  <!-- Background -->
  <rect width="512" height="512" rx="108" fill="url(#bg)"/>
  <!-- Car body -->
  <path d="M120 280L156 200C164 180 184 168 206 168H306C328 168 348 180 356 200L392 280" fill="none" stroke="url(#car)" stroke-width="24" stroke-linecap="round" stroke-linejoin="round"/>
  <rect x="100" y="268" width="312" height="100" rx="32" fill="url(#car)"/>
  <!-- Windows -->
  <rect x="152" y="200" width="80" height="56" rx="12" fill="#0f172a"/>
  <rect x="280" y="200" width="80" height="56" rx="12" fill="#0f172a"/>
  <!-- Wheels -->
  <circle cx="176" cy="368" r="40" fill="#0f172a" stroke="url(#car)" stroke-width="16"/>
  <circle cx="336" cy="368" r="40" fill="#0f172a" stroke="url(#car)" stroke-width="16"/>
  <!-- Key icon (accent) -->
  <circle cx="400" cy="140" r="48" fill="url(#accent)"/>
  <path d="M388 128L412 128M412 128L412 152M388 140C388 146.627 393.373 152 400 152C406.627 152 412 146.627 412 140C412 133.373 406.627 128 400 128C393.373 128 388 133.373 388 140Z" stroke="white" stroke-width="10" stroke-linecap="round"/>
</svg>
