<svg width="256" height="256" viewBox="0 0 256 256" fill="none" xmlns="http://www.w3.org/2000/svg">
  <defs>
    <linearGradient id="bg" x1="0" y1="0" x2="1" y2="1">
      <stop offset="0" stop-color="#020617"/>
      <stop offset="1" stop-color="#0f172a"/>
    </linearGradient>
    <linearGradient id="accent" x1="0" y1="0" x2="1" y2="1">
      <stop offset="0" stop-color="#38bdf8"/>
      <stop offset="1" stop-color="#22c55e"/>
    </linearGradient>
    <filter id="shadow" x="-20" y="-20" width="296" height="296" filterUnits="userSpaceOnUse" color-interpolation-filters="sRGB">
      <feDropShadow dx="0" dy="12" stdDeviation="16" flood-color="#000000" flood-opacity="0.35"/>
    </filter>
  </defs>
  <rect x="28" y="28" width="200" height="200" rx="56" fill="url(#bg)" filter="url(#shadow)"/>
  <rect x="52" y="112" width="152" height="60" rx="24" fill="#020617" stroke="#1e293b" stroke-width="4"/>
  <path d="M76 112L92 80C96 72 102 68 110 68H146C154 68 160 72 164 80L180 112" fill="#020617" stroke="#1f2937" stroke-width="4" stroke-linecap="round" stroke-linejoin="round"/>
  <rect x="76" y="132" width="40" height="24" rx="10" fill="#0f172a" stroke="#1e293b" stroke-width="3"/>
  <rect x="140" y="132" width="40" height="24" rx="10" fill="#0f172a" stroke="#1e293b" stroke-width="3"/>
  <circle cx="96" cy="180" r="14" fill="#020617" stroke="#38bdf8" stroke-width="4"/>
  <circle cx="160" cy="180" r="14" fill="#020617" stroke="#38bdf8" stroke-width="4"/>
  <path d="M104 96H152" stroke="#38bdf8" stroke-width="4" stroke-linecap="round"/>
  <path d="M88 152H116" stroke="#22c55e" stroke-width="4" stroke-linecap="round"/>
  <path d="M148 152H176" stroke="#22c55e" stroke-width="4" stroke-linecap="round"/>
  <rect x="88" y="60" width="80" height="28" rx="14" fill="#020617" stroke="#38bdf8" stroke-width="3"/>
  <text x="128" y="80" text-anchor="middle" dominant-baseline="middle" font-family="system-ui, -apple-system, BlinkMacSystemFont, "Segoe UI", sans-serif" font-size="16" font-weight="700" fill="#e5e7eb">
    법인차량
  </text>
</svg>
